<?xml version="1.0" encoding="UTF-8"?>
<svg id="Layer_1" xmlns="http://www.w3.org/2000/svg" version="1.1" viewBox="0 0 480 170">
  <!-- Generator: Adobe Illustrator 30.2.1, SVG Export Plug-In . SVG Version: 2.1.1 Build 1)  -->
  <defs>
    <style>
      .st0 {
        fill: #fff;
      }
    </style>
  </defs>
  <g>
    <path class="st0" d="M401.38,93.49c.05.28.28.12.57.12h18.87c.24,0,1.69-1.41,2.2-2.54.21-.46-.23-.95-.71-.8-1.5.47-3.14.64-4.78.63-5.31-.03-10.55-2.65-10.68-8.41,0-.33.25-.61.58-.61l3.3-.07c.31,0,.55-.25.57-.55.97-16.1,12.6-29.92,29.19-29.99.33,0,.6-.27.59-.6l-.08-3.32c0-.31-.25-.57-.56-.58-1.34-.03-2.32.38-2.13-1.27.03-.3.28-.54.59-.54h6.19c.3,0,.55.23.59.54.17,1.59-.76,1.33-2.05,1.28-.36-.01-.64.3-.61.65.16,1.82-.36,3.81.45,3.86,1.23.08,3.11.09,5.18.4,1.35.2,3.58.77,4.77,1.2,11.34,4.14,19.14,16.22,19.59,28.15.05.22-.08.83.19.84,2.15.11,6.33-.88,3.06,5-1.03,1.85-3.51,3.28-5.73,3.18-.36-.02-.67.28-.62.64.13,1.1.77,2.25.66,3.23-.38,3.44-15.3,13.41-18.95,16.63-.11.1-.25.15-.39.15h-30.27c-.33,0-.59.26-.59.59v3.32c0,.33-.27.59-.6.59-2.05-.03-4.12.1-6.17,0-.41-.02-.98.07-1.53.11-.76.05-.85-1.09-.1-1.17l6.07-.68c.3-.03.52-.29.52-.59v-16.9c0-.33-.26-.59-.59-.59h-15.94c-.33,0-.59.26-.59.59v15.18c0,.4,2.1,1.86,3.1,3.08.32.39.05.96-.45.96h-3.85c-.33,0-.59-.26-.59-.58l-.19-21.25c.38-.09,1.92.09,1.92.09ZM470.82,81.9c-.95-38.36-56.82-38.49-56.76,0h56.76ZM475.33,83.71h-65.76c-.16,3.97,3.97,5.19,7.24,5.27.91.02,2.01,0,2.93,0,4.13-.02,8.63,0,12.99,0,9.18,0,18.72-.12,27.4,0,2.25.03,4.53-.04,6.77,0,3.71.06,7.09-.36,8.42-5.27ZM434.79,99.02h15.77c.7,0,10.86-6.97,10.07-8.11h-13.05c2.77,10.04-11.48,1.57-12.79,8.11ZM445.6,90.91h-18.47c-.97,0-6.2,4.8-6.57,6.04-.59,2-.87,11.14,1.29,11.85l28.51-.06,17.8-13.91c.25-2.24-.34-4.44-3-3.76s-12.29,9.75-13.71,9.75h-17.12c-1.49,0-2.05-3.94-.08-5.49,2.34-1.83,8.3-.36,11.34-.82v-3.6Z"/>
    <path class="st0" d="M411.04,104.54c5.9-1.97,6.15,5.16,2.4,6.09-3.46.86-5.59-5.03-2.4-6.09Z"/>
    <path class="st0" d="M441.99,55.78c.46,2.77-.76,1.41-2.2,1.8-5.57,1.53-7.19,2.16-12.12,5.04-1.44.84-1.15,2.01-2.77-.09,4.18-4.71,10.79-7.01,17.09-6.75Z"/>
  </g>
  <g>
    <path class="st0" d="M13.38,48.28v57.24h32.22v6.84H5.82V48.28h7.56Z"/>
    <path class="st0" d="M89.88,106.51h2.61v5.85c-1.2.18-2.52.27-3.96.27-4.86,0-7.47-2.22-7.83-6.66-3.24,4.98-8.28,7.47-15.12,7.47-5.1,0-9.11-1.18-12.02-3.55-2.91-2.37-4.36-5.72-4.36-10.04,0-8.4,5.73-13.2,17.19-14.4l6.66-.72c4.86-.54,7.29-2.67,7.29-6.39,0-2.58-.8-4.44-2.38-5.58-1.59-1.14-4.27-1.71-8.06-1.71-4.02,0-6.92.68-8.69,2.02-1.77,1.35-2.78,3.74-3.01,7.16h-7.2c.6-10.26,6.9-15.39,18.9-15.39s17.46,4.5,17.46,13.5v25.92c0,1.5.84,2.25,2.52,2.25ZM65.94,107.32c3.84,0,7.2-1.17,10.08-3.51,2.88-2.28,4.32-5.55,4.32-9.81v-5.49c-1.32,1.02-3.36,1.68-6.12,1.98l-6.75.81c-3.9.48-6.68,1.38-8.33,2.7-1.65,1.32-2.48,3.21-2.48,5.67s.78,4.27,2.34,5.63c1.56,1.35,3.87,2.02,6.93,2.02Z"/>
    <path class="st0" d="M143.24,113.8c-8.7,0-15.81-3.03-21.33-9.09-5.52-6.06-8.28-14.19-8.28-24.39s2.76-18.33,8.28-24.39c5.52-6.06,12.63-9.09,21.33-9.09,6.9,0,12.78,1.88,17.64,5.62,4.86,3.75,8.07,9.23,9.63,16.42h-7.65c-2.7-10.08-9.24-15.12-19.62-15.12-6.54,0-11.79,2.34-15.75,7.02-3.96,4.74-5.94,11.25-5.94,19.53s1.98,14.76,5.94,19.44c3.96,4.74,9.21,7.11,15.75,7.11,4.92,0,9.3-1.53,13.14-4.59,3.78-2.94,6.09-7.35,6.93-13.23h7.56c-.84,7.98-3.87,14.07-9.09,18.27-5.28,4.32-11.46,6.48-18.54,6.48Z"/>
    <path class="st0" d="M215.42,106.78c-4.26,4.44-9.66,6.66-16.2,6.66s-11.94-2.22-16.2-6.66c-4.2-4.38-6.3-10.26-6.3-17.64s2.1-13.26,6.3-17.64c4.26-4.44,9.66-6.66,16.2-6.66s11.94,2.22,16.2,6.66c4.2,4.38,6.3,10.26,6.3,17.64s-2.1,13.26-6.3,17.64ZM188.33,102.19c2.7,3.18,6.33,4.77,10.89,4.77s8.19-1.59,10.89-4.77c2.7-3.12,4.05-7.47,4.05-13.05s-1.35-10.02-4.05-13.14c-2.7-3.12-6.33-4.68-10.89-4.68s-8.19,1.56-10.89,4.68c-2.7,3.12-4.05,7.5-4.05,13.14s1.35,9.93,4.05,13.05Z"/>
    <path class="st0" d="M249.53,113.44c-6.42,0-11.61-2.22-15.57-6.66-3.96-4.44-5.94-10.32-5.94-17.64s1.98-13.35,5.94-17.73c3.84-4.38,9.03-6.57,15.57-6.57,5.52,0,10.05,1.5,13.59,4.5,3.54,3,5.67,7.11,6.39,12.33h-7.47c-.54-3.3-1.97-5.85-4.27-7.65-2.31-1.8-5.06-2.7-8.24-2.7-4.26,0-7.65,1.55-10.17,4.64-2.52,3.09-3.78,7.49-3.78,13.18s1.27,10.02,3.83,13.14c2.55,3.12,5.92,4.68,10.12,4.68,3.18,0,5.94-.93,8.28-2.79,2.34-1.86,3.78-4.44,4.32-7.74h7.38c-.78,5.22-2.99,9.36-6.62,12.42-3.63,3.06-8.09,4.59-13.37,4.59Z"/>
    <path class="st0" d="M284.54,58.9h-7.65v-8.82h7.65v8.82ZM284.36,112.36h-7.2v-46.44h7.2v46.44Z"/>
    <path class="st0" d="M316.58,64.84c5.16,0,9.18,1.41,12.06,4.23,2.88,2.82,4.32,6.78,4.32,11.88v31.41h-7.2v-30.69c0-6.9-3.54-10.35-10.62-10.35-3.36,0-6.33,1.26-8.91,3.78-2.58,2.52-3.87,6.18-3.87,10.98v26.28h-7.2v-46.44h6.84v6.93c3.54-5.34,8.4-8.01,14.58-8.01Z"/>
    <path class="st0" d="M381.74,106.51h2.61v5.85c-1.2.18-2.52.27-3.96.27-4.86,0-7.47-2.22-7.83-6.66-3.24,4.98-8.28,7.47-15.12,7.47-5.1,0-9.1-1.18-12.01-3.55-2.91-2.37-4.36-5.72-4.36-10.04,0-8.4,5.73-13.2,17.19-14.4l6.66-.72c4.86-.54,7.29-2.67,7.29-6.39,0-2.58-.79-4.44-2.38-5.58-1.59-1.14-4.28-1.71-8.05-1.71-4.02,0-6.92.68-8.69,2.02-1.77,1.35-2.78,3.74-3.01,7.16h-7.2c.6-10.26,6.9-15.39,18.9-15.39s17.46,4.5,17.46,13.5v25.92c0,1.5.84,2.25,2.52,2.25ZM357.8,107.32c3.84,0,7.2-1.17,10.08-3.51,2.88-2.28,4.32-5.55,4.32-9.81v-5.49c-1.32,1.02-3.36,1.68-6.12,1.98l-6.75.81c-3.9.48-6.68,1.38-8.33,2.7-1.65,1.32-2.47,3.21-2.47,5.67s.78,4.27,2.34,5.63c1.56,1.35,3.87,2.02,6.93,2.02Z"/>
  </g>
  <g>
    <path class="st0" d="M143.52,135.49h8.4c3.78,0,6.77,1.1,8.96,3.29,2.17,2.19,3.26,5.25,3.26,9.17s-1.08,6.92-3.26,9.13c-2.22,2.22-5.2,3.33-8.96,3.33h-8.4v-24.92ZM146.46,157.75h5.46c2.94,0,5.2-.86,6.77-2.59,1.58-1.73,2.36-4.13,2.36-7.21s-.79-5.48-2.36-7.21c-1.57-1.73-3.83-2.59-6.77-2.59h-5.46v19.6Z"/>
    <path class="st0" d="M181.88,158.13h1.01v2.28c-.47.07-.98.11-1.54.11-1.89,0-2.91-.86-3.05-2.59-1.26,1.94-3.22,2.91-5.88,2.91-1.98,0-3.54-.46-4.67-1.38-1.13-.92-1.7-2.22-1.7-3.9,0-3.27,2.23-5.13,6.69-5.6l2.59-.28c1.89-.21,2.83-1.04,2.83-2.49,0-1-.31-1.73-.93-2.17-.62-.44-1.66-.67-3.13-.67-1.56,0-2.69.26-3.38.79-.69.52-1.08,1.45-1.17,2.78h-2.8c.23-3.99,2.68-5.99,7.35-5.99s6.79,1.75,6.79,5.25v10.08c0,.58.33.88.98.88ZM172.57,158.45c1.49,0,2.8-.46,3.92-1.37,1.12-.89,1.68-2.16,1.68-3.81v-2.14c-.51.4-1.31.65-2.38.77l-2.62.31c-1.52.19-2.6.54-3.24,1.05-.64.51-.96,1.25-.96,2.21s.3,1.66.91,2.19c.61.52,1.5.79,2.69.79Z"/>
    <path class="st0" d="M193.81,142.07c.47,0,.78.01.95.04v2.69h-.7c-1.87,0-3.32.46-4.36,1.38-1.04.92-1.56,2.23-1.56,3.94v10.29h-2.8v-18.06h2.66v3.18c1.21-2.31,3.15-3.46,5.81-3.46Z"/>
    <path class="st0" d="M212.75,160.41h-3.25l-6.09-9.7-3.22,3.01v6.68h-2.8v-24.92h2.8v14.95l8.37-8.08h3.71l-6.86,6.51,7.35,11.55Z"/>
    <path class="st0" d="M238.4,135.49h3.88l-10.64,10.15,10.64,14.77h-3.6l-9.17-12.81-4.73,4.51v8.29h-2.94v-24.92h2.94v13.09l13.62-13.09Z"/>
    <path class="st0" d="M246.91,139.62h-2.97v-3.43h2.97v3.43ZM246.84,160.41h-2.8v-18.06h2.8v18.06Z"/>
    <path class="st0" d="M258.95,142.35v2.45h-3.71v11.73c0,1.03.69,1.54,2.07,1.54h1.64v2.34c-.77.07-1.43.11-2,.11-3.01,0-4.51-1.25-4.51-3.75v-11.97h-2.97v-2.45h2.97v-5.11h2.8v5.11h3.71Z"/>
    <path class="st0" d="M269.06,160.83c-2.5,0-4.51-.86-6.05-2.59s-2.31-4.01-2.31-6.86.77-5.19,2.31-6.89c1.49-1.7,3.51-2.56,6.05-2.56,2.15,0,3.91.58,5.29,1.75,1.38,1.17,2.21,2.77,2.49,4.8h-2.91c-.21-1.28-.76-2.28-1.66-2.98-.9-.7-1.97-1.05-3.2-1.05-1.66,0-2.97.6-3.96,1.8-.98,1.2-1.47,2.91-1.47,5.13s.5,3.9,1.49,5.11c.99,1.21,2.3,1.82,3.94,1.82,1.24,0,2.31-.36,3.22-1.08.91-.72,1.47-1.73,1.68-3.01h2.87c-.3,2.03-1.16,3.64-2.57,4.83-1.41,1.19-3.14,1.79-5.2,1.79Z"/>
    <path class="st0" d="M288.14,141.93c2.01,0,3.57.55,4.69,1.65s1.68,2.64,1.68,4.62v12.21h-2.8v-11.93c0-2.68-1.38-4.03-4.13-4.03-1.31,0-2.46.49-3.46,1.47-1,.98-1.5,2.4-1.5,4.27v10.22h-2.8v-24.92h2.8v9.34c1.38-1.94,3.22-2.91,5.53-2.91Z"/>
    <path class="st0" d="M314.46,151.38v.98h-13.72c.14,1.96.69,3.44,1.65,4.43.96.99,2.26,1.49,3.92,1.49,2.5,0,4.09-1.12,4.79-3.36h2.9c-.49,1.82-1.4,3.26-2.73,4.32-1.33,1.06-3.01,1.59-5.04,1.59-2.5,0-4.51-.85-6.05-2.55-1.56-1.7-2.35-4-2.35-6.9s.77-5.13,2.31-6.86c1.52-1.73,3.52-2.59,6.02-2.59s4.62.9,6.09,2.7c1.47,1.8,2.21,4.05,2.21,6.75ZM306.16,144.48c-1.47,0-2.67.46-3.6,1.38-.93.92-1.52,2.25-1.75,3.97h10.64c-.14-1.59-.68-2.88-1.61-3.87-.93-.99-2.16-1.49-3.68-1.49Z"/>
    <path class="st0" d="M326.11,141.93c2.01,0,3.57.55,4.69,1.65s1.68,2.64,1.68,4.62v12.21h-2.8v-11.93c0-2.68-1.38-4.03-4.13-4.03-1.31,0-2.46.49-3.46,1.47-1,.98-1.5,2.4-1.5,4.27v10.22h-2.8v-18.06h2.66v2.69c1.38-2.08,3.27-3.12,5.67-3.12Z"/>
  </g>
</svg>