<?xml version="1.0" encoding="UTF-8"?>
<svg id="Layer_1" xmlns="http://www.w3.org/2000/svg" version="1.1" viewBox="0 0 841.89 595.28">
  <!-- Generator: Adobe Illustrator 30.2.1, SVG Export Plug-In . SVG Version: 2.1.1 Build 1)  -->
  <defs>
    <style>
      .st0 {
        fill: #fff;
      }
    </style>
  </defs>
  <path d="M494.68,233.15c1.94.73,3.63,2.34,5.81,2.65,5.19-6.54,45.08-11.46,59.93-3.75,1.52.79,5.26,4.34,6.39,4.24,0,0,6.52-3.87,7.15-4.17,13.66-6.44,34.1-7.76,48.34-1.84,1.57.65,8.27,4.94,8.77,4.68,14-7.32,31.31-11.11,40.25-10.55,11.71.73,25.56,12.23,30.56,21.85,5.91,11.37,6.23,22.02,5.92,34.85-.2,8.35-4.07,31.42-3.94,54.4.13,22.1,16.59,34.46,10.58,39.57-55.02,10.3-83.95-4.39-87.81-8.38-.27-.04-12.8,12.22-29.3,15.42-14.58,2.83-33.33-3.33-34.16-3.81-1.65,1.2-17,7.9-31.11,7.84-13.22-.06-25.3-6.82-25.78-7.31-.71,1.47-31.93,10.27-62.23,11.75-28.04,1.37-55.28-4.51-57.29-4.46-1.78.05-41.38,8.44-91.44,13.64-74.4,7.73-169.18,4.53-169.18,2.79-.02-6.35,20.51-40.4,23.03-82.55,1.88-31.53-14.77-88.35-17.78-99.45,0,0,51.62,1.19,55.64,1.03,10.37-.42,21.62,8.64,29.72,16.33,2.17,2.06,8.52-22.36,55.14-23.08,7.42-.11,90.97-5.74,92.75-4.47.64.46-8.6,20.53-5.99,24.71.37.6,22.17-5.04,22.17-5.04,11.5-1.58,24.5-2.82,33.87,5.08,0,0,46.62-14.56,80-1.97h-.01Z"/>
  <path class="st0" d="M346.88,220.31c0,1.43-7.08,41.7-8.33,73.52-1.5,38,1.14,77.56,1.27,77.87,1.24,3.08,8.67,8.55,7.8,9.06-2.52,1.48-16.75,2.86-22.34,2.93,0,0-53.75,4.55-57.63,5.05-4.85.62-29.26,1.33-33.7,1.83-.54.06-5.02-.15-5.31-.52-.4-.51-.46-1.53-.32-2.14.06-.28,3.6-5.5,6.34-8.23,6.85-6.83,10.05-82.44,5.64-98.83-.88-3.26-4.18,9.93-5.01,14.24-.58,3.01-24.32,101.35-30.53,99.11-4.23-1.52-6.63-28.13-8.85-38.87-2.53-12.26-7.26-39.66-8.58-40.73-1.81-1.47-2.78.68-3.1,2.33-.64,3.34-3.16,49.18-3.28,51.92-.09,2.13,4.76,24.96,7.52,25.67,3.49.88-43.09,2.01-43.09,1.08,0-2.92,4.62-4.59,6.59-6.12,3.78-2.93,11.65-36.22,13.26-70.81,1.72-36.8-2.94-74.96-3.65-75.77-.48-.55-10.77-7.42-3.03-8.56,1.87-.27,39.43-1.53,40.44-1.43,3.27.31,5.27,2.58,4.29,5.85-.26.46-2.93.08-3.58,2.33-.09.31-1.78,9.86-.18,17.33,4.13,19.19,14.63,48.41,15.66,47.98,2.61-1.09,21.2-57.88,22.79-64.05.26-1.03.68-2.95.69-3.95,0-.48-1.17-3.09-1.47-3.4-.62-.65-4.61-2.19-4.85-2.58-.12-.19-.46-1.17-.06-2.19.3-.77,2.88-1.02,2.88-1.02,0,0,33.1-1.68,36.05-1.65,14.61.11,6.22,1.88,1,9.88-2.13,3.25-8.03,112.23-8.02,113.5,0,.86.04,3.58-.03,4.64-.13,2.15-1.21,25.15,5.65,25.21,10.54.1,8.38-15.05,8.87-23.74,1.26-22.31,4.44-75.79,4.19-80.14-.35-6.11,1.86-12.21-2.26-17.16-1.21-1.45-3.25-1.42-3.38-3.68,0,0,30.12-4.08,30.66-3.29.3,3.29-.55,6.66-.72,9.99-.47,9.3-1.31,18.59-1.31,27.94,0,3.26-.51,7.58-.67,11.55-.2,4.76-1.3,20.52-1.46,23.28-.68,11.9-2.81,47.35-1.5,49.67.36.64,1.07,1.22,1.91,1.75,2.68,1.69,6.2.84,7.91-1.83,1.56-2.43,2.61-4.97,2.89-8.29.65-7.65,6.9-100.3,4.62-138.42-.98-2.43-3.99-6.58-3.8-9.06.15-2.04,3.01-1.96,4.72-2.48.72-.22,17.17-1.43,22.21-.99.34.03,2.62-.08,3.54.86,1.01,1.04.63,3.17.63,3.6l.02-.04Z"/>
  <path class="st0" d="M483.35,244.45c9.44,8.29,6.5,97.14,6.04,105.1-.31,5.37,10.4,21.42,10.84,21.93,1.18,1.38.63,2.99-3,3.31-9.09.81-29.36,1.98-29.97,1.17-2.67-5.15,3.38-102.56,2.32-105.2-.18-.44-2.36-5.98-2.76-6.5-1.74-2.25-5.04-2.23-7.24-.81-3.13,2.01-7.2,8.33-8.08,11.94-1.09,4.47-5.53,77.65-5.63,84.31-.03,1.69.2,5.94.55,7.46.67,2.88,8.13,6.88,4.82,9.15-7.03,4.82-47.61,2.85-56.84,2.26-2.6-.17-7.3-6.08-7.75-6.01-1.69,2.55-3.78,5.44-6.43,7.07-11.51,7.1-27.91-2-32.14-13.85-6.6-18.49-.69-49.61,15.52-61.87,7.58-5.74,27.19-13.69,28.26-14.97-.35-1.55.33-14.53-.09-17.96-.33-2.7-2.41-6.23-5.27-6.73-2.53-.44-7.18.6-9.28,2.15-1.63,1.2-2.83,4.54-3.62,6.54-.82,2.09-2.35,13.22-10.57,14.08-14.71,1.55-3.57-28.12-2.28-31.64,2.53-6.88,6.1-9.54,13.18-11.48,19.12-5.23,38.2,2.46,40.59,23.7.19,1.65-1.54,23.6-1.55,24.74-.03,3.52-1.78,33.95-2.41,45.92-.38,7.22-2.34,20.43.04,27,1.09,3.01,3.03,5.42,6.45,5.56,1.91-1.06,2.86-2.71,3.62-4.76,2-5.45,1.64-11.86,2-17.58,1.06-16.83,1.99-33.69,3.04-50.7.82-13.29,2.41-26.51,1.32-39.97-.11-1.35-1.05-4.9-1.95-5.85-1.93-2.04-6.99-2-6.37-5.17,1.07-.25,30.33-5.69,31.56-3.93.96,1.37,1.5,5.72,1.58,5.71,2.93-.35,8.18-6.03,11.64-6.5,15.69-2.15,19.67,2.23,19.87,2.4v-.02ZM384,358.33c2.32-2.45,3.01-8.14,3.28-11.19.84-9.56,1.56-23.04.93-32.38-.07-.97-.23-2.99-1.27-3.11-2.4-.28-6.28,5.09-6.85,5.72-7.26,7.99-12.47,36.22-8.13,39.38,1.61,1.18,11.9,1.72,12.04,1.57h0Z"/>
  <path class="st0" d="M692.97,350.21c.77,5.14,5.97,7.61,9.07,11.15,1.16,2.26.56,4.69-2.18,5.02-1.53.18-21.56,2.85-26.73-1.76-.43-.38-3.07-3.47-3.95-3.03-12.84,6.48-31.64,1.03-36.36-10.05-2.56-6.03-1.5-22.18-.71-29.06.63-5.47,4.46-14.36,7.26-19.14,7.48-12.76,33.31-19.42,33.86-19.8,1.36-.93-.07-16.27-.44-21.65-1.1-16.01-14.22-6.95-15.21-1.65-4.82,25.67-13.97,16.86-14.99,8.65-.93-7.46-1.7-15.37,2.59-22.11,2.16-3.39,16.04-12.35,27.86-9.42,6.92,1.71,14.11,3.98,17.12,10.51,6.54,14.18,2.18,98.05,2.82,102.35h-.01ZM668.93,330.34c.21-4.6.9-9.8,1.26-14.53.14-1.88,2.05-9.73-.8-10.25-2.16-.4-7.46,5.83-9.33,8.68-3.62,5.54-5.94,12.84-5.64,19.39.12,2.62.72,11.91,3.57,12.68,5.12,1.4,10.6-8.64,10.94-15.97Z"/>
  <path class="st0" d="M551.78,311.49c-7.89,2.97-26.49,3.74-27.75,6.33-2.14,4.4-3.64,19.16-3.53,20.67.19,2.82.49,7.34,1.69,9.82,1.34,2.75,2.72,4.75,5.67,6.6,5.11,3.21,16.01-.76,16.51-1.1,2-1.36,2.8-9.28,3.29-11.63.42-2.02.71-4.14,1.11-6.18.29-1.52-.34-2.34.98-4.07,1.16-1.53,2.6-1.76,3.26-1.83,1.97-.22,5.45.2,6.53,1.5,1.26,1.52,2.66,27.72-5.58,35.63-.25.24-4.99,4.02-9.97,5.88s-27.72,1.27-34.15-6.3c-4.36-5.14-8.97-12.03-10.56-18.83-.21-.9.57-36.28,1.71-49.21.53-5.98,1.09-12.06,1.66-18,1.1-11.5,3.71-30.79,15.41-34.19,62.06-18.03,43.73,61.12,33.71,64.9h.01ZM540.01,293.56c1.62-1.58,2.02-28.37,1.73-29.41-2.78-10-11.07-1.16-11.26-.98-4.8,4.59-8.59,29.03-5.58,34.11,7.74,5.41,11.34-.05,15.11-3.72h0Z"/>
  <path class="st0" d="M629.91,257.3c1.47,3.41.66,11.24-.61,14.94-2.65,7.73-12.02,7.42-14.62-4.48-.78-3.57-1.1-7.15-8.15-9.09-2.37-.65-15.66,1.32-11.97,19.05.41,1.97,7.36,12.32,9.03,13.81,8.58,7.65,18.77,25.26,19.3,26.39,2.77,5.9,5.76,16.67,4.97,23.24-1.97,16.34-19.17,25.85-22.37,27.31-10.31,4.71-24.28,4.95-33.34-2.9-.35-.3-3.48-3.01-5.04-7.11-2.59-6.81-.26-26.18-.03-27.85.63-4.47,10.56-8.75,11.91,2.16,4.25,34.31,24.77,15.76,25.28,9.11.79-10.33-7.83-22.91-14.1-30.77-.91-1.14-6.85-8.07-7.05-8.51-.47-1.07-2.92-3.43-3.68-4.51-3.22-4.6-5.73-9.13-7.29-14.65-5.08-18.01,8.19-35.76,14.51-39.31,7.07-3.97,17.55-5.95,25.27-3.73,1.13.32,11.8,2.6,17.96,16.9h.02Z"/>
  <circle class="st0" cx="295.31" cy="232.25" r="11.68"/>
</svg>