<?xml version="1.0" encoding="UTF-8"?>
<svg id="Layer_1" xmlns="http://www.w3.org/2000/svg" version="1.1" viewBox="0 0 841.89 595.28">
  <!-- Generator: Adobe Illustrator 30.2.1, SVG Export Plug-In . SVG Version: 2.1.1 Build 1)  -->
  <defs>
    <style>
      .st0 {
        stroke-width: 1.34px;
      }

      .st0, .st1 {
        fill: none;
        stroke: #fff;
        stroke-miterlimit: 10;
      }

      .st2 {
        fill: #fff;
      }

      .st1 {
        stroke-width: 1.45px;
      }
    </style>
  </defs>
  <path class="st2" d="M421.18,374.62c46.2,0,92.4,0,138.6,0,2.42,0,4.88-.17,7.24.25,5.39.95,8.31,6.33,4.77,10.34-4.38,4.98-9.73,10.64-15.68,12.34-14.28,4.06-29.08,7.73-43.82,8.44-64.83,3.12-129.73,4-194.53-1.05-10.62-.83-21.41-3.2-31.43-6.81-5.92-2.13-11.38-7.39-15.41-12.55-4.21-5.38-1.12-10.27,5.71-10.89,1.53-.14,3.08-.07,4.62-.07,46.64,0,93.28,0,139.92,0Z"/>
  <path class="st2" d="M322.74,231.1l-5.73-12.22c-.22-.47,0-1.04.5-1.23,3.2-1.25,6.27-2.53,9.42-3.58,4.22-1.41,8.69-2.23,12.77-3.95,13.3-5.63,22.77-.45,30.54,10.11.61.83,1.38,1.56,2.08,2.33.2.18,1.05.56,1.31.42.33-.18.67-1.02.44-1.41-2.6-4.89-5.21-9.77-8.1-15.2-.27-.5-.01-1.13.53-1.3,1.76-.56,3.44-1.18,5.17-1.45,4.4-.68,8.95-.66,13.26-1.7,17.4-4.19,29.81,2.64,38.9,17.3.14.16.85.33,1.11.2.24-.12.51-.58.39-.94-.92-2.84-1.54-5.82-2.83-8.48-1.23-2.53-2.94-4.83-5.01-7.94-.39-.58,0-1.36.7-1.41,23.58-1.67,44.8-1.02,57.63,22.72.21.29,1.13.38,1.45.1.29-.25.55-1.07.36-1.69-2.1-4.98-4.2-9.96-6.29-14.93-.19-.45,0-.99.46-1.18,12.5-5.15,40.35,7.35,54.26,23.21.62.71,1.78.11,1.57-.8-.58-2.55-1.21-5.28-1.97-8.57-.17-.72.56-1.33,1.25-1.04,18.17,7.67,34.69,15.56,45.42,31.75,3.01,4.55-.54,9.21-6.65,8.79-9.78-.67-19.52-1.96-29.27-3.06-62.26-7.06-124.66-8.27-187.13-3.88-23.13,1.63-46.17,4.49-69.25,6.79-.76.08-1.57.18-2.33.2-.35,0-.61,0-.99-.02-2.72-.13-6.55-1.31-7.29-3.05-.94-2.22-.1-6.16,1.48-8.25,3.18-4.2,7.02-8.1,11.22-11.3,5.28-4.03,11.04-7.52,16.87-10.74,10.58-5.82,15.45-7.22,20.2,3.99.39.91,1.02,2.05,1.53,2.97.34.53,1.72,1.27,2.35.77.52-.41-.27-2.02-.33-2.33Z"/>
  <g>
    <path class="st2" d="M300.91,263.94h14.67v3.6h-10.55v6.96h9.48v3.16h-9.48v7.09h10.92v3.63h-15.04v-24.44Z"/>
    <path class="st2" d="M323.85,263.94h4.15v20.81h11.35v3.63h-15.51v-24.44Z"/>
    <path class="st2" d="M367.23,276.62c0-8.39,4.52-13.15,11.05-13.15,2.45,0,4.39.5,5.89,1.33l.64,4.26c-1.74-1.23-3.68-1.7-5.83-1.7-4.69,0-7.5,3.46-7.5,8.86,0,6.33,3.55,8.76,7.47,8.76,1.98,0,4.02-.37,6.03-1.63l-.5,4.09c-1.91,1.03-3.92,1.4-6.36,1.4-5.53,0-10.88-3.43-10.88-12.22Z"/>
    <path class="st2" d="M391.69,263.94h4.15v20.81h11.35v3.63h-15.51v-24.44Z"/>
    <path class="st2" d="M412.73,278.92v-14.98h4.12v15.25c0,4.56,1.71,5.89,4.45,5.89s4.52-1.5,4.52-6.26v-14.88h4.12v14.75c0,7.19-3.45,10.12-8.87,10.12s-8.34-2.36-8.34-9.89Z"/>
    <path class="st2" d="M444.18,288.38h-8.14v-24.44h7.47c5.26,0,8.1,2.23,8.1,6.33,0,2.53-.94,4.59-4.19,5.63,4.02.7,5.36,2.83,5.36,5.79,0,4.63-3.28,6.69-8.61,6.69ZM442.84,274.69c3.22,0,4.72-1.07,4.72-3.66s-1.64-3.73-4.86-3.73h-2.51v7.39h2.65ZM443.54,285.01c3.38,0,4.89-1.1,4.89-3.86,0-2.53-1.74-3.56-5.06-3.56h-3.18v7.42h3.35Z"/>
    <path class="st2" d="M480.89,263.94h7.5c7.5,0,10.35,4.73,10.35,12.02s-3.32,12.42-10.35,12.42h-7.5v-24.44ZM487.72,284.75c4.69,0,6.7-2.9,6.7-8.72s-1.77-8.46-6.66-8.46h-2.75v17.18h2.71Z"/>
    <path class="st2" d="M504.41,263.94h14.67v3.6h-10.55v6.96h9.48v3.16h-9.48v7.09h10.92v3.63h-15.04v-24.44Z"/>
    <path class="st2" d="M527.35,263.94h4.15v20.81h11.35v3.63h-15.51v-24.44Z"/>
  </g>
  <g>
    <path class="st2" d="M408.72,439.15h-9.46v-1.88h3.88v-8.66c-.62.95-1.97,1.51-3.77,1.51v-1.79c1.82,0,3.14-.88,3.96-2.85h1.99v11.79h3.4v1.88Z"/>
    <path class="st2" d="M415.91,439.19h-2.89c2.08-1.94,3.47-3.56,4.37-4.96-.19.02-.34.02-.51.02-3.75,0-5.41-1.87-5.41-4.24,0-3.19,2.25-4.7,4.71-4.7s4.8,1.25,4.8,4.94c0,2.52-.98,4.78-5.09,8.94ZM417.37,432.67c.26,0,.54,0,.84-.04.38-.88.53-1.64.53-2.35,0-2.33-1.22-3.12-2.5-3.12-1.48,0-2.51,1.14-2.51,2.7,0,1.32.68,2.8,3.64,2.8Z"/>
    <path class="st2" d="M428.96,439.37c-3.04,0-4.92-1.49-4.92-3.96,0-1.4.71-2.48,2.08-3.17-.96-.65-1.44-1.72-1.44-3.06,0-2.46,1.73-4.01,4.54-4.01,2.67,0,4.28,1.46,4.28,3.82,0,1.25-.54,2.35-1.65,3.06,1.6.69,2.14,1.88,2.14,3.23,0,2.46-1.86,4.09-5.03,4.09ZM429.02,437.6c1.77,0,2.78-.91,2.78-2.44,0-1.06-.66-1.83-2.38-2.07l-1.65-.22c-1.05.54-1.52,1.29-1.52,2.3,0,1.57,1.11,2.44,2.78,2.44ZM430.22,431.63c.77-.56,1.18-1.34,1.18-2.28,0-1.59-.88-2.39-2.27-2.39s-2.35.86-2.35,2.43c0,1.21.73,1.81,1.88,2l1.56.24Z"/>
    <path class="st2" d="M441.85,439.34c-2.38,0-4.8-1.25-4.8-4.94,0-2.52.98-4.78,5.09-8.94h2.89c-2.08,1.94-3.47,3.56-4.35,4.96.17-.02.32-.02.49-.02,3.75,0,5.41,1.87,5.41,4.24,0,3.19-2.23,4.7-4.71,4.7ZM441.81,437.47c1.46,0,2.5-1.14,2.5-2.71,0-1.32-.68-2.82-3.64-2.82-.26,0-.54.02-.85.06-.38.88-.52,1.64-.52,2.35,0,2.33,1.24,3.12,2.51,3.12Z"/>
  </g>
  <line class="st1" x1="319.18" y1="432.25" x2="388.69" y2="432.25"/>
  <line class="st1" x1="452.66" y1="432.25" x2="522.16" y2="432.25"/>
  <path class="st0" d="M408.36,155.91c-2.38,7.99-1.41,12.92,0,15.98.43.94.79,1.45,1.21,2.58,1.87,5,.47,10.05-1.04,13.58"/>
  <path class="st0" d="M425.59,155.91c-2.38,7.99-1.41,12.92,0,15.98.43.94.79,1.45,1.21,2.58,1.87,5,.47,10.05-1.04,13.58"/>
  <path class="st0" d="M442.26,155.91c-2.38,7.99-1.41,12.92,0,15.98.43.94.79,1.45,1.21,2.58,1.87,5,.47,10.05-1.04,13.58"/>
  <g>
    <path class="st2" d="M272.61,346.29c-1.48,6.12-2.94,12.25-4.4,18.37-18.54.85-37.07,1.86-55.6,3.03,0-.06,0-.12-.01-.18,3.2-1.56,4.87-4.21,4.64-7.93-.98-15.94-1.96-31.89-2.94-47.83-.23-3.71-2.24-6.14-5.68-7.29,0-.06,0-.12-.01-.18,8.43-.53,16.87-1.03,25.3-1.5,0,.06,0,.12.01.18-3.27,1.55-4.99,4.19-4.78,7.9.81,14.26,1.62,28.51,2.44,42.77,8.61-.49,17.23-.95,25.85-1.37,5.96-.29,10.57-1.78,14.89-6.15.09.06.19.11.28.17Z"/>
    <path class="st2" d="M273.39,332.63c-.89-19.4,14.52-33.84,37.29-34.58,22.77-.74,39.08,12.67,39.46,32.08.38,19.43-15.05,33.42-37.3,34.14-22.25.73-38.55-12.23-39.45-31.64ZM335,330.48c-.29-11.7-10.15-19.73-23.9-19.28-13.75.45-23.07,9.1-22.59,20.8.48,11.7,10.34,19.56,23.89,19.12,13.56-.44,22.88-8.93,22.6-20.63Z"/>
    <path class="st2" d="M357.1,361.58c3.26-1.42,5.05-4,4.98-7.72-.28-15.97-.57-31.94-.85-47.91-.07-3.72-1.97-6.23-5.35-7.53,0-.06,0-.12,0-.18,6.95-.13,13.91-.25,20.86-.34,8.26,11.84,16.43,23.72,24.52,35.62,7.95-12,15.98-23.97,24.1-35.91,6.96,0,13.91.04,20.87.09,0,.06,0,.12,0,.18-3.36,1.34-5.24,3.87-5.26,7.59-.09,15.97-.19,31.95-.28,47.92-.02,3.72,1.79,6.27,5.07,7.66,0,.06,0,.12,0,.18-8.13-.06-16.27-.09-24.4-.09v-.18c3.29-1.36,5.13-3.9,5.13-7.62.02-11.16.04-22.33.06-33.49-8.47,12.39-16.85,24.81-25.14,37.27-8.43-12.35-16.96-24.68-25.57-36.97.15,11.16.3,22.33.45,33.49.05,3.72,1.91,6.24,5.22,7.56,0,.06,0,.12,0,.18-8.13.1-16.27.22-24.4.38,0-.06,0-.12,0-.18Z"/>
    <path class="st2" d="M455.45,361.14c3.3-1.33,5.16-3.84,5.21-7.57.19-15.97.38-31.95.57-47.92.05-3.72-1.79-6.29-5.13-7.68,0-.06,0-.12,0-.18,8.45.09,16.89.21,25.34.36,0,.06,0,.12,0,.18-3.38,1.3-5.28,3.81-5.34,7.53-.26,15.97-.52,31.94-.78,47.92-.06,3.72,1.73,6.29,4.99,7.71,0,.06,0,.12,0,.18-8.29-.15-16.57-.27-24.86-.35,0-.06,0-.12,0-.18Z"/>
    <path class="st2" d="M554.02,318.22c-.06.06-.13.12-.19.17-4.57-3.99-8.7-5.61-15.19-5.83-3.74-.13-7.48-.26-11.22-.37-.45,14.27-.9,28.55-1.35,42.82-.12,3.72,1.63,6.32,4.88,7.79,0,.06,0,.12,0,.18-8.28-.27-16.57-.52-24.85-.73,0-.06,0-.12,0-.18,3.32-1.28,5.22-3.77,5.33-7.49.39-14.27.78-28.55,1.17-42.82-3.74-.1-7.48-.2-11.23-.29-6.5-.15-10.71,1.21-15.5,4.93-.06-.06-.12-.12-.18-.19,1.88-5.96,3.76-11.91,5.65-17.86,19.37.4,38.74.97,58.11,1.71,1.54,6.05,3.07,12.11,4.6,18.16Z"/>
    <path class="st2" d="M554.58,332.05c.74-19.4,17.31-32.5,40.06-31.33,22.75,1.17,37.89,15.9,36.64,35.28-1.26,19.39-17.81,32.04-40.04,30.89-22.24-1.14-37.4-15.42-36.66-34.84ZM616.16,335.07c.7-11.69-8.47-20.51-22.2-21.22-13.74-.71-23.75,7.13-24.26,18.83-.51,11.7,8.66,20.36,22.21,21.05,13.55.7,23.56-6.97,24.25-18.67Z"/>
  </g>
</svg>