<?xml version="1.0" encoding="UTF-8"?>
<svg id="Layer_1" xmlns="http://www.w3.org/2000/svg" version="1.1" viewBox="0 0 841.89 595.28">
  <!-- Generator: Adobe Illustrator 30.2.1, SVG Export Plug-In . SVG Version: 2.1.1 Build 1)  -->
  <defs>
    <style>
      .st0 {
        fill: #fff;
      }

      .st1 {
        fill: #fa622e;
      }
    </style>
  </defs>
  <path class="st0" d="M580.48,403.99c-16.96-3.43-27.58-18.21-26.44-35.8.11-1.61.31-3.18.6-4.73l-64.6-.24c-2.21,0-4.39-.43-6.43-1.24-5.95,2.63-12.34,3.9-19.45,3.88-5.18-.02-10.71-.76-16.9-2.25-7.61-1.84-14.58-4.76-20.79-8.72-3.05,4.86-8.52,8.06-14.69,8.04l-84.73-.32c-5.8-.02-10.99-2.82-14.16-7.23-9.52,6.23-20.57,9.47-32.35,9.42-15.08-.06-29.67-5.64-40.84-15.48-1.06,1.03-2.16,2.01-3.32,2.94-3.22,2.58-14.76,9.95-25.16,9.92l-61.32-.23c-9.55-.04-16.78-7.73-16.82-17.16l-.51-136.87c-.04-9.43,8.28-17.05,17.84-17.02l49.3.19c8.85.04,16.27,6.65,17.26,15.34,1.04,9.17,2.24,18.53,3.33,26.83,1.5.62,2.96,1.32,4.37,2.11,2.01-2.1,4.56-3.69,7.49-4.64,1.75-.57,3.58-.78,5.43-.78,0,0,141.97.54,142.03.54.89,0,1.78-.13,2.66,0,13.7,2.16,25.95,8.75,34.52,18.16,11.5-11.89,26.65-18.66,44.2-19.68,1.31-.08,2.67-.11,4.04-.11,14.41.05,29,4.81,41.21,13.26,2.52-6.29,8.74-10.92,16.01-10.91,5.02,0,133.59.06,138.37.52,16.73,1.63,32.4,11.21,40.92,25.3,8.72,14.45,9.86,31.3,3.24,46.63,1.15,2.44,4,7.97,4.02,12.69,0,0-.22,54.96.22,58.17,1.28,9.4-1.9,18.58-9.35,24.55-.8.63-7.84,5.36-16.03,5.33,0,0-100.6.13-103.17-.39v-.03Z"/>
  <path class="st1" d="M608.35,397.48c-20.63-.08-25.67-.2-26.88-.27-13.21-2.84-21.44-14.26-20.51-28.53.09-1.32.25-2.63.5-3.9l1.56-8.13-73-.28c-1.33,0-2.63-.26-3.86-.75l-2.74-1.09-2.68,1.19c-5.05,2.23-10.48,3.31-16.61,3.28-4.63-.02-9.62-.69-15.27-2.05-6.83-1.65-13.11-4.28-18.67-7.82l-5.93-3.78-3.69,5.88c-1.91,3.04-5.21,4.85-8.82,4.84l-84.73-.32c-3.38-.01-6.56-1.63-8.49-4.32l-3.91-5.43-5.59,3.65c-8.35,5.46-18.21,8.33-28.51,8.29-13.37-.05-26.23-4.93-36.23-13.73l-4.87-4.29-4.61,4.49c-.89.87-1.84,1.71-2.83,2.5-3.29,2.64-13.1,8.43-20.79,8.4l-61.32-.23c-5.6-.02-9.84-4.45-9.86-10.3l-.51-136.87c-.02-5.46,5.09-10.22,10.93-10.2l49.3.19c5.3.02,9.75,3.99,10.35,9.22,1.07,9.36,2.29,18.87,3.34,26.94l.52,3.95,3.73,1.54c1.24.51,2.45,1.09,3.61,1.74l4.74,2.65,3.71-3.88c1.24-1.3,2.8-2.26,4.63-2.85.93-.3,1.99-.44,3.26-.44l142.03.54c.41,0,.83-.02,1.24-.03.16,0,.33-.02.49-.02,11.91,1.9,22.66,7.56,30.29,15.93l5.02,5.51,5.15-5.32c10.26-10.6,23.96-16.68,39.63-17.59,1.17-.07,2.38-.1,3.6-.1,12.89.05,26.11,4.31,37.24,12.01l7.18,4.97,3.21-8c1.59-3.97,5.45-6.63,9.61-6.63h1.15c18.58,0,65.46.05,99.28.18,30.18.11,36.34.25,37.33.32,14.57,1.42,28.21,9.83,35.53,21.96,7.51,12.44,8.54,27.18,2.81,40.43l-1.21,2.8,1.64,3.47c.98,2.05,3.03,6.31,3.04,9.11-.07,16.61-.17,55.74.28,59.05,1,7.33-1.48,14-6.79,18.3-.43.29-5.81,3.89-11.74,3.87-.48,0-45.08.06-75.28-.06h0Z"/>
  <g>
    <path class="st0" d="M686.01,368.26c-.04-.17,1.53-1.46,1.82-1.82,4.19-5.22.85-13.04-5.88-13.61l-20.34-.08c-.06.15-.24.29-.17.53l.14,34.57,22.02.08c1.35,0,4.05-1.35,5.11-2.2,6.18-4.96,4.38-14.31-2.7-17.48h0ZM675.52,361.21c.75-.22,1.35.08,1.49.85.08.48.09,2.18-.02,2.65-.24,1.09-1.84,1.29-2.03-.15-.1-.71-.24-3.11.56-3.35h0ZM675.51,379.57c-.8-.37-.7-3.63-.17-4.11.35-.33,1.15-.24,1.48.13.46.53.82,4.97-1.3,3.98h-.01Z"/>
    <path class="st0" d="M468.78,294.52l49.11.19c.68-28.21-28.51-50.24-55.72-48.66-57.36,3.33-66.15,87.6-10.9,100.95,15.67,3.79,26.98,1.92,37.35-10.13.16-.19.52-.91.66-.87,1.5.38.38,8.33.71,10.13l28.1.11-.17-45.4-49.11-.19.06,15.68c0,1.98-7.03,2.34-7-.49.15-11.98-.16-24.91-.14-36.55,0-3.52,6.69-3.75,6.99-1.08.37,3.23-.19,12.16.06,16.32h0Z"/>
    <path class="st0" d="M645.95,319.18c0-2.68,5.35-1.61,5.35.02l.1,27.52,39.69.15-.11-30.6c0-1.01-1.51-4.81-2.08-5.9-1.14-2.19-2.95-3.85-4.61-5.63,8.59-11.7,10.07-26.33,2.4-39.03-5.7-9.45-16.51-16.06-27.63-17.14-16.22-1.58-36.59.23-53.07.24l.36,97.75,39.69.15-.1-27.52h.01ZM644.61,281.58c-.27-1.98-.68-8.66,1.57-9.33,2.09-.62,3.77.21,4.13,2.38.23,1.35.24,6.08-.04,7.37-.68,3.05-5.11,3.59-5.66-.41h0Z"/>
    <path class="st0" d="M379.69,247.51l-52.62.24c-.17.42-.66.81-.47,1.49l.39,96.26,39.69.15-.1-27.52c0-1.58,5.34-2.49,5.35.02l.1,27.52,39.69.15-.12-31.48c0-.99-2.09-5.49-2.77-6.54-.96-1.48-2.52-3.05-3.96-4.06,17.05-23.84,3.72-51.68-25.18-56.22h0ZM371.01,280.94c-.68,3.05-5.11,3.59-5.66-.41-.27-1.98-.68-8.66,1.57-9.33,2.09-.62,3.77.21,4.13,2.38.23,1.35.24,6.08-.04,7.37h0Z"/>
    <path class="st0" d="M217.87,290.26c-.12-.48,4.25-4.05,5.07-5.08,11.67-14.54,2.36-36.3-16.38-37.89l-56.64-.21c-.17.42-.66.81-.47,1.49l.39,96.26,61.32.23c3.76.01,11.28-3.75,14.24-6.12,17.21-13.8,12.19-39.85-7.53-48.68h0ZM188.67,270.65c2.09-.62,3.77.21,4.13,2.38.23,1.35.24,6.08-.04,7.37-.68,3.05-5.11,3.59-5.66-.41-.27-1.98-.68-8.66,1.57-9.33h0ZM188.66,321.75c-2.23-1.04-1.94-10.1-.48-11.45.99-.91,3.21-.67,4.11.35,1.29,1.48,2.28,13.84-3.63,11.09h0Z"/>
    <path class="st0" d="M321.95,247.73l-39.69-.15.03,70.88c-1.47,2.27-4.81,1.68-5.15-1.09l-.24-70.25-39.25-.15c-.66.21-.4.59-.46,1.07,1.27,19.77-1.37,41.23.23,60.8,3.24,39.59,55.99,53.47,78.05,20.01,13.13-19.92,3.76-57.83,6.47-81.13h0Z"/>
    <path class="st0" d="M659.57,352.9l-13.8-.05v24.65c-.5.79-1.66.58-1.78-.38l-.08-24.43-13.65-.05c-.23.07-.14.2-.16.37.44,6.88-.48,14.34.08,21.14.08.94.24,1.84.47,2.7l-8.08-.03-.09-23.56s-.62-.66-.67-.66l-13.16-.05.13,34.34,22.97.09c1-1.41.93-3.69,1.01-5.63,5.55,7.84,18.44,9.04,24.56-.24,4.57-6.93,1.31-20.11,2.25-28.21h0Z"/>
    <path class="st0" d="M603.36,317.04l-39.02-.15c-2.01,0-3.25-4.65-.38-5.18l25.94-.07,3.97-28.1-30.1-.11c-1.69,0-2.95-4.65.9-5.25l34.51.08,3.93-29.46c-26.9,0-53.82-.28-80.72-.3l.36,97.75,76.71.29,3.9-29.49h0Z"/>
    <path class="st0" d="M187.85,242.5l-.03-7.7c0-.76,1.78-.75,1.78,0l.03,7.7,14.6.06s-.7-4.1-.79-4.85c-1.28-9.82-2.55-19.67-3.67-29.52l-21.58-.1-3.24,24.18-10.55-.04-.09-23.56s-.62-.66-.67-.66l-13.16-.05.13,34.34,22.97.14,14.27.05h0ZM187.97,217.58c1.24-.37,2.24.13,2.45,1.41.13.8.14,3.61-.03,4.37-.4,1.81-3.04,2.13-3.36-.24-.16-1.17-.4-5.14.93-5.54h.01Z"/>
    <path class="st0" d="M590.56,371.47l.02,4.79c0,.66-3.2.78-3.19-.17.05-4.03-.05-8.37-.05-12.28,0-1.18,3.09-1.26,3.19-.36.12,1.09-.07,3.36.02,4.76l15.67.06c.23-9.48-9.58-16.16-18.73-15.63-19.28,1.12-22.39,30.15-3.66,33.93,6.4,1.29,15.73-.2,19.05-4.38,4.69-5.9,3.35-10.66,3.35-10.66l-15.67-.06h0Z"/>
  </g>
</svg>